# xmcd CD database file
#
# Track frame offsets:
#	150
#	16036
#	34731
#	46793
#	62342
#	75303
#	88902
#	98621
#	113301
#	126427
#	136711
#	152059
#	165347
#	179277
#	194452
#	208513
#	217939
#	232305
#
# Disc length: 3287 seconds
#
# Revision: 0
# Processed by: cddbd v1.5.2PL0 Copyright (c) Steve Scherf et al.
# Submitted via: CDex 1.51
#
DISCID=d80cd512
DTITLE=Joao Mulato e Douradinho - Soh Sucessos
DYEAR=1900
DGENRE=Country
TTITLE0=Meu Reino Encantado
TTITLE1=Advogado Honesto
TTITLE2=Calça Trocada
TTITLE3=Encontro Fatal
TTITLE4=Nordestino Inteligente
TTITLE5=Quem Ama Nao Esquece
TTITLE6=Quem Tem Boca Vai a Roma
TTITLE7=Laço da Ilusao
TTITLE8=Peh do Eito
TTITLE9=Amor da Minha Vida
TTITLE10=Coraçao Amoroso
TTITLE11=A Novela
TTITLE12=Nem Marido Nem Mulher
TTITLE13=Cruel Destino
TTITLE14=Amanha Eu Vou
TTITLE15=Afogando No Meu Pranto
TTITLE16=Missao Dolorosa
TTITLE17=Escola do Mundo
EXTD=
EXTT0=
EXTT1=
EXTT2=
EXTT3=
EXTT4=
EXTT5=
EXTT6=
EXTT7=
EXTT8=
EXTT9=
EXTT10=
EXTT11=
EXTT12=
EXTT13=
EXTT14=
EXTT15=
EXTT16=
EXTT17=
PLAYORDER=
